HIERARCHY
ROOT Hips
{
	OFFSET 0.000000 118.718704 0.000000
	CHANNELS 6 Xposition Yposition Zposition Xrotation Yrotation Zrotation 
	JOINT Spine
	{
		OFFSET 0.000000 13.214798 0.000000
		CHANNELS 3 Xrotation Yrotation Zrotation
		JOINT Spine1
		{
			OFFSET -0.004367 6.762400 0.000000
			CHANNELS 3 Xrotation Yrotation Zrotation
			JOINT Spine1_split
			{
				OFFSET -0.004367 6.762400 0.000000
				CHANNELS 3 Xrotation Yrotation Zrotation
				JOINT Spine2
				{
					OFFSET -0.004367 6.762400 0.000000
					CHANNELS 3 Xrotation Yrotation Zrotation
					JOINT Neck
					{
						OFFSET -0.006000 23.723495 -1.446200
						CHANNELS 3 Xrotation Yrotation Zrotation
						JOINT Head
						{
							OFFSET 0.000000 10.037094 3.529500
							CHANNELS 3 Xrotation Yrotation Zrotation
							JOINT HeadTop_End
							{
								OFFSET 0.000000 17.783005 3.803600
								CHANNELS 3 Xrotation Yrotation Zrotation
								End Site
								{
									OFFSET 0.000000 0.000000 0.000000
								}
							}
						}
					}
					JOINT LeftShoulder
					{
						OFFSET 5.652450 9.943001 -1.983000
						CHANNELS 3 Xrotation Yrotation Zrotation
						JOINT LeftShoulder_split
						{
							OFFSET 5.652450 9.943001 -1.983000
							CHANNELS 3 Xrotation Yrotation Zrotation
							JOINT LeftArm
							{
								OFFSET 11.306598 -5.748199 -0.270300
								CHANNELS 3 Xrotation Yrotation Zrotation
								JOINT LeftForeArm
								{
									OFFSET 30.736700 0.000000 0.000000
									CHANNELS 3 Xrotation Yrotation Zrotation
									JOINT LeftHand
									{
										OFFSET 26.713104 0.000000 0.000000
										CHANNELS 3 Xrotation Yrotation Zrotation
										JOINT LeftHandThumb1
										{
											OFFSET 4.344902 -2.566803 2.604371
											CHANNELS 3 Xrotation Yrotation Zrotation
											JOINT LeftHandThumb2
											{
												OFFSET 3.503593 -2.022797 2.022803
												CHANNELS 3 Xrotation Yrotation Zrotation
												JOINT LeftHandThumb3
												{
													OFFSET 2.816719 -1.626236 1.626234
													CHANNELS 3 Xrotation Yrotation Zrotation
													JOINT LeftHandThumb4
													{
														OFFSET 3.026596 -1.747406 1.747405
														CHANNELS 3 Xrotation Yrotation Zrotation
														End Site
														{
															OFFSET 0.000000 0.000000 0.000000
														}
													}
												}
											}
										}
										JOINT LeftHandIndex1
										{
											OFFSET 12.111603 -0.315857 3.402456
											CHANNELS 3 Xrotation Yrotation Zrotation
											JOINT LeftHandIndex2
											{
												OFFSET 4.509102 0.000000 0.000000
												CHANNELS 3 Xrotation Yrotation Zrotation
												JOINT LeftHandIndex3
												{
													OFFSET 2.907204 0.000000 0.000000
													CHANNELS 3 Xrotation Yrotation Zrotation
													JOINT LeftHandIndex4
													{
														OFFSET 2.981697 0.000000 0.000000
														CHANNELS 3 Xrotation Yrotation Zrotation
														End Site
														{
															OFFSET 0.000000 0.000000 0.000000
														}
													}
												}
											}
										}
										JOINT LeftHandMiddle1
										{
											OFFSET 13.093796 0.000000 0.000000
											CHANNELS 3 Xrotation Yrotation Zrotation
											JOINT LeftHandMiddle2
											{
												OFFSET 3.620201 0.000000 0.000000
												CHANNELS 3 Xrotation Yrotation Zrotation
												JOINT LeftHandMiddle3
												{
													OFFSET 2.832535 0.000000 0.000000
													CHANNELS 3 Xrotation Yrotation Zrotation
													JOINT LeftHandMiddle4
													{
														OFFSET 4.715599 0.000000 0.000000
														CHANNELS 3 Xrotation Yrotation Zrotation
														End Site
														{
															OFFSET 0.000000 0.000000 0.000000
														}
													}
												}
											}
										}
										JOINT LeftHandRing1
										{
											OFFSET 12.918800 0.015854 -3.523114
											CHANNELS 3 Xrotation Yrotation Zrotation
											JOINT LeftHandRing2
											{
												OFFSET 2.935997 0.000000 0.000000
												CHANNELS 3 Xrotation Yrotation Zrotation
												JOINT LeftHandRing3
												{
													OFFSET 3.435600 0.000000 0.000000
													CHANNELS 3 Xrotation Yrotation Zrotation
													JOINT LeftHandRing4
													{
														OFFSET 3.120598 0.000000 0.000000
														CHANNELS 3 Xrotation Yrotation Zrotation
														End Site
														{
															OFFSET 0.000000 0.000000 0.000000
														}
													}
												}
											}
										}
										JOINT LeftHandPinky1
										{
											OFFSET 11.479301 -0.316162 -6.518347
											CHANNELS 3 Xrotation Yrotation Zrotation
											JOINT LeftHandPinky2
											{
												OFFSET 2.474701 0.000000 0.000000
												CHANNELS 3 Xrotation Yrotation Zrotation
												JOINT LeftHandPinky3
												{
													OFFSET 2.073799 0.000000 0.000000
													CHANNELS 3 Xrotation Yrotation Zrotation
													JOINT LeftHandPinky4
													{
														OFFSET 2.978897 0.000000 0.000000
														CHANNELS 3 Xrotation Yrotation Zrotation
														End Site
														{
															OFFSET 0.000000 0.000000 0.000000
														}
													}
												}
											}
										}
									}
								}
							}
						}
					}
					JOINT RightShoulder
					{
						OFFSET -5.639300 9.943001 -1.983000
						CHANNELS 3 Xrotation Yrotation Zrotation
						JOINT RightShoulder_split
						{
							OFFSET -5.639300 9.943001 -1.983000
							CHANNELS 3 Xrotation Yrotation Zrotation
							JOINT RightArm
							{
								OFFSET -11.306598 -5.748199 -0.270300
								CHANNELS 3 Xrotation Yrotation Zrotation
								JOINT RightForeArm
								{
									OFFSET -30.736702 0.000000 0.000000
									CHANNELS 3 Xrotation Yrotation Zrotation
									JOINT RightHand
									{
										OFFSET -26.713104 0.000000 0.000000
										CHANNELS 3 Xrotation Yrotation Zrotation
										JOINT RightHandThumb1
										{
											OFFSET -6.800003 -2.789825 2.712297
											CHANNELS 3 Xrotation Yrotation Zrotation
											JOINT RightHandThumb2
											{
												OFFSET -3.503593 -2.022797 2.022803
												CHANNELS 3 Xrotation Yrotation Zrotation
												JOINT RightHandThumb3
												{
													OFFSET -2.816719 -1.626236 1.626234
													CHANNELS 3 Xrotation Yrotation Zrotation
													JOINT RightHandThumb4
													{
														OFFSET -3.026566 -1.747391 1.747391
														CHANNELS 3 Xrotation Yrotation Zrotation
														End Site
														{
															OFFSET 0.000000 0.000000 0.000000
														}
													}
												}
											}
										}
										JOINT RightHandIndex1
										{
											OFFSET -14.497482 -1.249008 3.526457
											CHANNELS 3 Xrotation Yrotation Zrotation
											JOINT RightHandIndex2
											{
												OFFSET -4.509102 0.000000 0.000000
												CHANNELS 3 Xrotation Yrotation Zrotation
												JOINT RightHandIndex3
												{
													OFFSET -2.907204 0.000000 0.000000
													CHANNELS 3 Xrotation Yrotation Zrotation
													JOINT RightHandIndex4
													{
														OFFSET -2.981697 0.000000 0.000000
														CHANNELS 3 Xrotation Yrotation Zrotation
														End Site
														{
															OFFSET 0.000000 0.000000 0.000000
														}
													}
												}
											}
										}
										JOINT RightHandMiddle1
										{
											OFFSET -15.099701 0.000000 0.000000
											CHANNELS 3 Xrotation Yrotation Zrotation
											JOINT RightHandMiddle2
											{
												OFFSET -3.620201 0.000000 0.000000
												CHANNELS 3 Xrotation Yrotation Zrotation
												JOINT RightHandMiddle3
												{
													OFFSET -2.832535 0.000000 0.000000
													CHANNELS 3 Xrotation Yrotation Zrotation
													JOINT RightHandMiddle4
													{
														OFFSET -4.715599 0.000000 0.000000
														CHANNELS 3 Xrotation Yrotation Zrotation
														End Site
														{
															OFFSET 0.000000 0.000000 0.000000
														}
													}
												}
											}
										}
										JOINT RightHandRing1
										{
											OFFSET -15.621628 -0.772964 -3.512012
											CHANNELS 3 Xrotation Yrotation Zrotation
											JOINT RightHandRing2
											{
												OFFSET -2.935997 0.000000 0.000000
												CHANNELS 3 Xrotation Yrotation Zrotation
												JOINT RightHandRing3
												{
													OFFSET -3.435600 0.000000 0.000000
													CHANNELS 3 Xrotation Yrotation Zrotation
													JOINT RightHandRing4
													{
														OFFSET -3.120598 0.000000 0.000000
														CHANNELS 3 Xrotation Yrotation Zrotation
														End Site
														{
															OFFSET 0.000000 0.000000 0.000000
														}
													}
												}
											}
										}
										JOINT RightHandPinky1
										{
											OFFSET -14.089645 -1.001190 -6.433213
											CHANNELS 3 Xrotation Yrotation Zrotation
											JOINT RightHandPinky2
											{
												OFFSET -2.474701 0.000000 0.000000
												CHANNELS 3 Xrotation Yrotation Zrotation
												JOINT RightHandPinky3
												{
													OFFSET -2.073799 0.000000 0.000000
													CHANNELS 3 Xrotation Yrotation Zrotation
													JOINT RightHandPinky4
													{
														OFFSET -2.978897 0.000000 0.000000
														CHANNELS 3 Xrotation Yrotation Zrotation
														End Site
														{
															OFFSET 0.000000 0.000000 0.000000
														}
													}
												}
											}
										}
									}
								}
							}
						}
					}
				}
			}
		}
	}
	JOINT LeftUpLeg
	{
		OFFSET 9.418100 -4.875099 1.897700
		CHANNELS 3 Xrotation Yrotation Zrotation
		JOINT LeftLeg
		{
			OFFSET 0.162075 -48.429626 2.366100
			CHANNELS 3 Xrotation Yrotation Zrotation
			JOINT LeftFoot
			{
				OFFSET -0.162075 -51.286976 -5.566600
				CHANNELS 3 Xrotation Yrotation Zrotation
				JOINT LeftToeBase
				{
					OFFSET 1.731600 -13.715200 15.999399
					CHANNELS 3 Xrotation Yrotation Zrotation
					JOINT LeftToe_End
					{
						OFFSET 1.266700 -0.078000 10.510900
						CHANNELS 3 Xrotation Yrotation Zrotation
						End Site
						{
							OFFSET 0.000000 0.000000 0.000000
						}
					}
				}
			}
		}
	}
	JOINT RightUpLeg
	{
		OFFSET -9.418100 -4.875099 1.897700
		CHANNELS 3 Xrotation Yrotation Zrotation
		JOINT RightLeg
		{
			OFFSET -0.162176 -48.429573 2.366200
			CHANNELS 3 Xrotation Yrotation Zrotation
			JOINT RightFoot
			{
				OFFSET 0.162176 -51.287025 -5.566700
				CHANNELS 3 Xrotation Yrotation Zrotation
				JOINT RightToeBase
				{
					OFFSET -1.731600 -13.715200 15.999400
					CHANNELS 3 Xrotation Yrotation Zrotation
					JOINT RightToe_End
					{
						OFFSET -1.266700 -0.078000 10.510900
						CHANNELS 3 Xrotation Yrotation Zrotation
						End Site
						{
							OFFSET 0.000000 0.000000 0.000000
						}
					}
				}
			}
		}
	}
}
MOTION
Frames: 4
Frame Time: 0.016667
0.498843 57.267555 -19.170635 17.437944 -3.970482 -3.354194 2.760865 1.184570 1.126095 3.415217 0.538783 0.655648 0.000000 0.000000 0.000000 3.411620 0.523145 0.694777 -20.897059 -1.690638 2.334698 6.187212 1.923108 -1.995895 -0.000001 0.000000 -0.000000 -1.948429 -5.907586 -0.558352 0.000000 0.000000 0.000000 -21.895925 10.967163 -53.326791 0.000199 -100.950087 0.000207 -10.249326 6.803105 1.467010 0.699763 -6.020118 19.223936 15.904136 20.618333 2.526751 2.882004 -2.226159 3.895758 0.000001 -0.000002 -0.000001 -0.882055 0.111717 -17.062270 0.750097 2.870030 -29.288883 0.234390 1.642107 -16.245328 -0.000000 -0.000000 -0.000001 0.507625 4.599304 -23.664966 1.327826 3.715354 -39.321078 0.454682 2.264804 -22.701537 -0.000000 0.000000 0.000000 0.512588 4.792963 -33.247558 0.966167 3.224556 -33.351288 0.523159 2.421838 -24.375945 -0.000000 0.000003 0.000000 1.271356 9.836654 -43.337277 0.569816 2.522193 -25.457541 0.089817 1.022963 -10.034773 -0.000000 0.000001 0.000001 -0.396482 7.242751 -3.645942 0.000000 0.000000 0.000000 -23.504805 -9.156885 63.634817 0.000706 93.338080 -0.000761 -18.246336 -3.777098 -7.515239 -13.495580 -11.552041 -5.371140 8.968857 -11.213675 -11.629527 2.472164 0.956673 -27.737637 -0.000000 -0.000002 -0.000002 -0.010610 -1.311431 16.227826 0.609699 -2.305695 29.620570 0.154902 -1.192323 14.802845 -0.000001 -0.000000 -0.000004 -2.448421 2.544399 23.622208 0.941985 -2.810288 37.055357 0.542270 -2.182878 27.898615 0.000000 -0.000000 -0.000001 -4.299934 0.597452 42.996191 0.373274 -1.828549 23.072780 0.312260 -1.678247 21.079717 0.000000 0.000000 -0.000001 -7.422586 3.766710 43.939669 0.623834 -2.330282 29.969617 0.125652 -1.075622 13.325259 0.000000 -0.000000 -0.000000 -108.384864 -12.320992 23.558632 121.589224 -5.593708 2.340464 -28.126690 -0.097317 -1.657976 -1.393585 -0.000007 -0.000002 -0.000000 0.000000 0.000000 -108.223248 4.575866 -15.723290 119.034160 5.719834 -1.965715 -26.627508 0.385964 2.335996 -1.741352 0.000001 0.000001 -0.000000 0.000000 -0.000001 
0.535195 59.115868 -19.173740 17.670055 -3.894916 -3.481000 2.639441 1.137939 1.170337 3.260930 0.473886 0.681813 0.000000 0.000000 0.000000 3.257327 0.458150 0.717044 -20.926860 -1.736011 2.479662 5.823640 2.086416 -1.955643 0.000000 -0.000000 -0.000000 -1.928799 -5.969054 -0.841684 0.000000 0.000000 0.000000 -20.691179 10.316369 -52.948152 0.000138 -100.280954 0.000111 -9.156031 6.059141 1.407310 0.699760 -6.020118 19.223941 15.883851 20.573679 2.550584 2.842330 -2.330266 4.001441 0.000004 -0.000000 0.000001 -0.839276 0.264310 -17.102061 0.751070 2.871717 -29.308017 0.239785 1.660580 -16.433367 -0.000001 -0.000003 -0.000002 0.538758 4.670183 -23.706731 1.327233 3.714626 -39.312103 0.455645 2.267020 -22.725103 0.000001 0.000002 0.000001 0.578012 4.897703 -33.444906 0.965684 3.223840 -33.342911 0.523431 2.422450 -24.382438 -0.000000 -0.000002 -0.000001 1.348169 9.910028 -43.569367 0.572180 2.527092 -25.510856 0.089309 1.020175 -10.007083 -0.000001 -0.000003 -0.000000 -0.324187 7.723112 -2.996408 0.000000 0.000000 0.000000 -22.522829 -8.652626 62.373206 0.000849 92.886399 -0.000826 -18.200246 -4.042480 -6.766175 -13.495584 -11.552039 -5.371140 9.072422 -11.484359 -11.514297 2.464237 1.144954 -27.959535 0.000001 0.000001 0.000002 -0.008564 -1.366362 16.459783 0.612833 -2.311121 29.697751 0.155688 -1.195416 14.842090 0.000001 -0.000000 0.000001 -2.443058 2.474029 23.801213 0.943379 -2.812130 37.083832 0.544028 -2.186218 27.945022 0.000000 0.000001 -0.000000 -4.291360 0.552695 43.161731 0.370201 -1.821348 22.976569 0.311840 -1.677177 21.065535 0.000000 0.000000 -0.000001 -7.379659 3.688631 44.034079 0.618918 -2.321742 29.848285 0.125117 -1.073537 13.298882 0.000000 0.000000 -0.000000 -106.466728 -11.588502 23.430139 119.502984 -5.208912 2.193349 -28.353382 -0.069029 -1.774792 -1.396823 -0.000003 -0.000000 -0.000000 -0.000000 0.000000 -106.187346 3.839814 -15.729220 116.893073 5.535697 -1.853537 -26.834727 0.352289 2.445610 -1.678810 -0.000000 -0.000000 0.000000 -0.000000 -0.000000 
0.563830 61.117096 -19.140633 17.825926 -3.833980 -3.580297 2.519098 1.083720 1.197596 3.114237 0.407844 0.687839 0.000000 0.000000 0.000000 3.110689 0.392704 0.719295 -20.916807 -1.795924 2.654053 5.447356 2.252443 -1.983820 0.000001 -0.000000 -0.000000 -1.887800 -5.983746 -1.123604 0.000000 0.000000 0.000000 -19.396265 9.467874 -52.534332 0.000276 -99.314284 0.000283 -8.123226 5.275608 1.308145 0.699764 -6.020119 19.223948 15.882300 20.571377 2.551931 2.795133 -2.454985 4.138520 0.000007 -0.000002 -0.000001 -0.790276 0.444102 -17.174155 0.752173 2.873679 -29.330011 0.245734 1.680587 -16.637250 0.000000 0.000000 -0.000001 0.578004 4.759239 -23.746029 1.327074 3.714457 -39.309791 0.456524 2.269165 -22.747713 -0.000001 0.000004 0.000001 0.656229 5.020621 -33.662847 0.965617 3.223702 -33.341425 0.523820 2.423324 -24.391791 -0.000000 -0.000002 -0.000000 1.447597 10.009776 -43.833009 0.575586 2.534262 -25.588535 0.088860 1.017424 -9.979811 -0.000001 -0.000003 -0.000001 -0.228013 8.211504 -2.367013 0.000000 0.000000 0.000000 -21.417125 -8.108666 61.020138 0.002224 92.296271 -0.002207 -17.986887 -4.254837 -5.888167 -13.495584 -11.552042 -5.371142 9.248509 -11.926465 -11.323157 2.460965 1.217995 -28.068741 -0.000002 0.000002 0.000002 -0.006937 -1.430472 16.768989 0.617528 -2.319335 29.814189 0.156501 -1.198359 14.879437 0.000001 -0.000001 0.000002 -2.442602 2.402849 24.021811 0.944710 -2.813891 37.110873 0.545586 -2.189088 27.985102 0.000000 -0.000000 -0.000001 -4.288791 0.504187 43.376988 0.367444 -1.814781 22.889140 0.311691 -1.676741 21.059852 0.000001 0.000000 -0.000001 -7.370322 3.630255 44.181403 0.614489 -2.314074 29.739535 0.124649 -1.071399 13.271963 -0.000000 -0.000001 -0.000000 -104.290466 -10.844537 23.280408 117.218955 -4.808585 2.022208 -28.547448 -0.016368 -1.931858 -1.397752 -0.000004 -0.000006 0.000000 -0.000000 0.000001 -103.933172 3.130599 -15.648961 114.554334 5.318632 -1.714661 -26.988442 0.306699 2.591935 -1.606881 0.000000 -0.000002 -0.000000 -0.000001 -0.000000 
0.587955 63.248260 -19.065323 17.932890 -3.785451 -3.634486 2.404487 1.028373 1.204951 2.982459 0.351909 0.672396 0.000000 0.000000 0.000000 2.978972 0.338099 0.700662 -20.865987 -1.866334 2.844771 5.064826 2.405579 -2.096715 -0.000000 -0.000000 0.000000 -1.812169 -5.997438 -1.414040 0.000000 0.000000 0.000000 -18.033175 8.452407 -52.059145 0.000139 -98.056320 0.000106 -7.144677 4.472806 1.178246 0.699760 -6.020118 19.223943 15.899910 20.612111 2.530518 2.742372 -2.596123 4.302150 -0.000000 0.000002 0.000003 -0.741962 0.626979 -17.279644 0.753189 2.875487 -29.350289 0.251321 1.699105 -16.826154 -0.000002 -0.000000 -0.000001 0.619277 4.852361 -23.796516 1.327489 3.714953 -39.316102 0.457323 2.271022 -22.767462 -0.000001 0.000001 0.000000 0.736753 5.145422 -33.899711 0.966070 3.224463 -33.350140 0.524278 2.424263 -24.401925 0.000001 0.000001 0.000000 1.558410 10.120308 -44.122489 0.579375 2.542135 -25.673824 0.088384 1.015004 -9.955825 0.000001 0.000002 0.000000 -0.099933 8.691447 -1.814898 0.000000 0.000000 0.000000 -20.319779 -7.489448 59.593967 0.001174 91.454676 -0.001290 -17.614728 -4.408040 -4.928612 -13.495583 -11.552042 -5.371143 9.500768 -12.538770 -11.052968 2.463422 1.148829 -28.033513 -0.000004 0.000003 -0.000001 -0.005505 -1.498950 17.129445 0.622671 -2.328283 29.940988 0.157155 -1.200908 14.911780 0.000000 0.000000 -0.000001 -2.445656 2.334246 24.263639 0.945723 -2.815236 37.131668 0.546806 -2.191419 28.017426 -0.000000 0.000001 0.000000 -4.291924 0.455248 43.625327 0.364889 -1.808800 22.809227 0.311806 -1.677004 21.063404 -0.000001 0.000001 0.000001 -7.390334 3.590545 44.369773 0.610651 -2.307363 29.644404 0.124341 -1.070094 13.255434 -0.000000 0.000000 0.000001 -101.916593 -10.078867 23.105459 114.752915 -4.400453 1.828867 -28.692013 0.055948 -2.123129 -1.393400 0.000004 0.000002 0.000000 -0.000002 -0.000001 -101.518959 2.486320 -15.483656 112.037847 5.077068 -1.552442 -27.073222 0.249573 2.773560 -1.526563 -0.000003 0.000001 0.000000 -0.000000 -0.000001 
